<svg version="1.1" id="Layer_1" xmlns="http://www.w3.org/2000/svg" xmlns:xlink="http://www.w3.org/1999/xlink" x="0px" y="0px"
	 width="100%" viewBox="0 0 1280 573" enable-background="new 0 0 1280 573" xml:space="preserve">

<path fill="#AE812D" opacity="1.000000" stroke="none" 
	d="
M705.999390,312.176880 
	C705.553101,312.123291 705.106873,312.069733 703.916992,312.021851 
	C699.908203,311.640137 696.643066,311.252777 693.373535,310.578918 
	C693.393860,309.911469 693.418640,309.530518 693.831482,309.163605 
	C706.973206,307.454590 719.085083,303.609039 729.963501,296.768585 
	C739.352905,290.864471 746.277100,283.131775 743.662476,270.328064 
	C743.245850,268.944061 742.812073,267.902527 742.405151,266.495972 
	C741.305359,264.082001 740.178711,262.033081 739.052124,259.984131 
	C738.603088,259.048553 738.154053,258.112976 737.337158,256.728088 
	C733.625183,252.256149 730.281067,248.233536 726.829834,243.933807 
	C726.125122,243.159500 725.527405,242.662308 724.813599,241.843170 
	C719.240967,236.680099 713.784485,231.839005 708.327942,226.997894 
	C706.446167,225.360260 704.564392,223.722626 702.229614,221.715805 
	C701.237183,221.052719 700.697815,220.758820 700.028503,220.216248 
	C699.294312,219.570602 698.690002,219.173615 697.921021,218.498260 
	C696.286560,217.385925 694.816772,216.551941 693.293457,215.753616 
	C693.239807,215.789261 693.330627,215.689270 693.302490,215.342438 
	C686.532227,210.290390 679.790100,205.585190 673.047913,200.879974 
	C671.259827,199.555832 669.471741,198.231689 667.193359,196.558456 
	C658.599243,190.499374 650.514465,184.761887 642.357483,179.128998 
	C641.667358,178.652405 640.493835,178.875854 639.484924,178.746780 
	C639.424988,178.719482 639.404724,178.589310 639.664795,178.272614 
	C637.457581,175.940308 634.990234,173.924683 632.338745,171.628174 
	C631.101746,170.568375 630.049011,169.789474 628.837830,168.716553 
	C625.066833,165.298264 621.454224,162.174011 617.722656,158.774246 
	C616.716187,157.708389 615.828613,156.918045 614.828125,155.806549 
	C610.113403,150.037735 605.511780,144.590057 600.832397,138.836075 
	C599.871094,137.342773 598.987488,136.155777 598.052246,134.626434 
	C595.785278,130.477615 593.570007,126.671181 591.336792,122.537659 
	C590.728638,121.076309 590.138489,119.942032 589.492432,118.429832 
	C587.023804,108.364616 584.611023,98.677330 582.316162,88.553558 
	C582.373291,85.416481 582.312561,82.715889 582.390991,79.715500 
	C582.604431,77.279266 582.678772,75.142838 582.896912,72.691193 
	C582.932617,71.702744 582.824524,71.029526 582.544861,69.288132 
	C581.665466,71.204384 581.265381,72.076118 580.563110,73.132675 
	C575.302246,85.487335 570.343689,97.657188 565.209961,110.049500 
	C564.933655,110.814018 564.832581,111.356079 564.488586,112.187813 
	C562.923706,118.652496 561.601746,124.827492 560.279785,131.002487 
	C560.099121,131.748764 559.918396,132.495026 559.628052,133.990891 
	C559.078064,138.825287 558.637695,142.910080 558.101685,147.362717 
	C557.972351,148.486130 557.938660,149.241714 557.672058,150.264313 
	C556.730225,153.968613 556.021362,157.405899 555.142944,160.938721 
	C554.779541,161.261078 554.754822,161.505066 554.627502,162.010468 
	C551.704407,166.839539 549.052917,171.424347 546.401367,176.009155 
	C545.656006,176.791855 544.910645,177.574539 543.775269,178.810516 
	C537.233948,185.745682 531.082642,192.227554 524.655151,198.839417 
	C523.848450,200.620453 523.317932,202.271500 522.827576,204.330200 
	C524.230957,205.538055 525.594116,206.338226 527.108398,207.392197 
	C527.805847,207.852386 528.352112,208.058777 529.101807,208.538681 
	C537.585571,212.039352 543.635437,216.818161 541.700806,227.242676 
	C541.209717,228.662689 540.962524,229.821701 540.475647,231.239594 
	C538.852417,234.662308 537.611145,237.898499 536.048340,240.971130 
	C534.206299,244.592575 534.162781,246.785446 539.148132,247.021423 
	C542.990540,247.203293 546.599365,248.149887 548.240540,252.510574 
	C549.872864,256.847748 547.237854,259.257019 544.764893,261.979187 
	C544.205505,262.594940 544.434021,263.926453 544.311157,264.956970 
	C544.322571,264.985413 544.290955,265.037933 543.902588,265.385986 
	C544.305176,266.739594 544.913452,268.007111 545.917419,268.707001 
	C551.275085,272.442017 553.838867,277.453033 553.223328,284.350922 
	C553.067383,285.475067 553.044373,286.237823 552.857483,287.385559 
	C552.140076,292.380615 551.196350,296.984253 551.119690,301.602264 
	C550.986328,309.634583 557.305176,315.535126 564.262573,313.046448 
	C565.056702,313.014923 565.587769,312.916534 566.522339,312.869873 
	C573.660156,310.757874 580.394531,308.594177 587.128906,306.430450 
	C588.846802,305.978333 590.564636,305.526245 593.053101,305.011047 
	C597.211487,304.502319 600.599426,304.056641 604.361206,303.702576 
	C605.494995,303.714386 606.254822,303.634521 607.411499,303.659485 
	C610.872375,303.846313 613.936340,303.928314 617.300903,304.137939 
	C618.030884,304.274292 618.460144,304.283051 619.194214,304.519745 
	C635.425964,307.715668 649.836304,313.218872 658.625000,328.469421 
	C659.002502,329.557861 659.364990,330.321381 659.724609,331.495850 
	C660.041809,334.907135 660.362000,337.907440 660.487610,341.225098 
	C660.148926,343.026306 660.004822,344.510193 659.676819,346.300293 
	C659.095337,347.970154 658.697815,349.333740 658.300293,350.697327 
	C657.570679,351.923248 656.841125,353.149200 655.874390,354.905182 
	C654.662659,357.044983 653.688110,358.654724 652.413391,360.452972 
	C651.264404,361.743469 650.415527,362.845459 649.302307,364.118896 
	C646.689331,366.836487 644.340820,369.382660 642.016724,371.955200 
	C642.041199,371.981598 641.935425,371.983246 641.552490,372.030701 
	C636.237183,375.970825 631.304932,379.863495 626.372620,383.756134 
	C625.927063,383.877289 625.481506,383.998444 624.651489,384.405212 
	C623.849854,385.088470 623.432678,385.486084 622.690552,385.911499 
	C621.912598,386.293640 621.459717,386.648010 620.692627,387.076385 
	C619.914062,387.419922 619.449646,387.689423 618.583374,388.045288 
	C617.359924,388.110291 616.538269,388.088898 615.823425,387.729492 
	C619.962402,383.597473 623.994507,379.803467 628.325806,375.868103 
	C630.115845,373.830414 631.606750,371.934052 633.097717,370.037720 
	C634.039551,368.906311 634.981384,367.774872 636.259277,366.143066 
	C637.342224,364.252319 638.089111,362.861969 638.835938,361.471619 
	C644.693359,351.919250 646.241089,341.917084 641.635132,330.730286 
	C639.377014,327.815216 637.467896,325.478882 635.558777,323.142578 
	C632.961853,321.374146 630.364868,319.605743 627.169800,317.546051 
	C616.701721,313.485748 606.724548,312.870728 596.312927,316.207397 
	C595.679749,316.377808 595.345764,316.577026 594.627808,316.739197 
	C586.500122,319.262482 578.756287,321.822845 570.731812,324.305298 
	C569.957458,324.452576 569.463806,324.677734 568.544434,324.884369 
	C561.684082,326.100769 555.342224,325.834839 548.968689,323.466125 
	C548.310669,323.114471 547.800232,322.988251 547.289856,322.862000 
	C545.447021,321.206177 543.604126,319.550293 541.330811,317.450317 
	C539.535522,313.005768 538.170715,309.005371 536.877869,304.672058 
	C536.898926,303.891083 536.848083,303.443024 536.888916,302.568726 
	C537.726135,297.785797 538.477417,293.430054 539.215698,289.072083 
	C540.230835,283.080566 539.726868,277.744110 534.416260,273.485809 
	C532.080872,271.613190 530.713013,268.533752 528.965454,265.628815 
	C528.999268,264.503174 528.973450,263.751038 529.135010,262.717194 
	C530.933594,260.355103 532.544739,258.274658 533.867554,256.566528 
	C530.622253,254.929947 527.312256,253.260712 523.899780,251.225769 
	C523.885986,247.669022 523.974670,244.478027 524.318115,241.155914 
	C525.105225,239.801224 525.637512,238.577652 526.458557,237.137024 
	C527.772644,235.061661 528.914185,233.256790 529.798340,231.333572 
	C531.462830,227.712814 532.298401,224.123489 528.285645,221.105118 
	C526.834351,220.212982 525.445374,219.488312 523.815735,218.510178 
	C520.708313,216.990967 517.869141,215.657578 514.968994,214.473907 
	C509.347260,212.179520 505.903687,208.561279 507.256897,201.746048 
	C507.727722,200.666763 507.986664,199.840729 508.501007,198.788757 
	C511.859711,194.049789 514.963013,189.536758 518.349854,184.948395 
	C519.055969,184.234436 519.478577,183.595810 520.174133,182.870209 
	C521.041748,182.056488 521.636414,181.329742 522.543396,180.450607 
	C523.772278,179.267197 524.688782,178.236160 525.878906,177.084549 
	C527.500427,175.480576 528.848267,173.997162 530.470825,172.392395 
	C531.231262,171.656219 531.716980,171.041428 532.504944,170.252136 
	C535.349731,166.273300 538.373474,162.698761 540.325623,158.612350 
	C543.489380,151.989807 543.183289,151.862869 536.878540,147.913254 
	C535.353821,146.958069 533.912842,145.869110 532.317749,144.522018 
	C531.530029,143.608627 530.857849,143.014893 530.075928,142.108826 
	C528.531555,138.452271 527.097107,135.108032 525.728943,131.469391 
	C525.673523,130.797333 525.551758,130.419678 525.543640,129.731567 
	C525.575256,128.995987 525.493286,128.570847 525.594116,127.953247 
	C526.181396,127.516060 526.585999,127.271324 527.013184,127.324280 
	C527.740540,128.560043 528.445251,129.498123 529.257202,130.763290 
	C530.910706,132.366623 532.456970,133.642853 534.226440,135.197754 
	C537.775208,136.914917 541.100830,138.353409 545.256470,140.150955 
	C545.565674,135.159241 545.787415,131.579620 546.144165,127.630569 
	C546.457703,125.978981 546.636292,124.696823 546.956909,123.087006 
	C547.807312,119.527657 548.515747,116.295967 549.477905,112.865143 
	C550.102539,111.442062 550.473389,110.218132 551.054321,108.673538 
	C556.230774,97.919044 561.197205,87.485207 566.432373,76.894501 
	C566.960205,76.182800 567.219421,75.627960 567.741943,74.871399 
	C572.255859,68.208138 576.535828,61.765503 580.716980,55.259354 
	C581.199158,54.509010 581.131042,53.405041 581.332458,52.404839 
	C581.346802,52.344635 581.467102,52.315388 581.755554,52.570358 
	C582.796753,51.920361 583.549500,51.015385 584.302307,50.110420 
	C584.940918,49.471256 585.579468,48.832077 586.531067,47.767662 
	C587.346924,46.605034 587.849731,45.867641 588.630859,45.043850 
	C589.292053,44.312088 589.674927,43.666729 590.359070,42.874268 
	C593.436157,39.473251 596.212036,36.219341 599.273071,32.871109 
	C600.031189,32.164742 600.504150,31.552696 601.278564,30.797407 
	C611.066650,22.475809 620.553284,14.297454 630.392944,6.092587 
	C633.497253,4.377379 636.248596,2.688685 639.000000,0.999995 
	C640.388916,1.000000 641.777771,1.000000 643.218140,1.229065 
	C644.827026,2.690329 646.384399,3.922529 648.094238,5.437484 
	C649.833130,6.785943 651.419617,7.851646 653.174255,9.160997 
	C653.529541,9.467142 653.716675,9.529638 654.074219,9.852274 
	C659.162842,14.304896 664.081177,18.497379 669.103394,22.956558 
	C669.672363,23.536612 670.137451,23.849964 670.760193,24.473446 
	C675.177979,28.894920 679.438171,33.006264 683.766479,37.404747 
	C684.425171,38.179771 685.015625,38.667667 685.726318,39.479523 
	C695.494812,51.683132 705.143127,63.562786 714.811890,75.704453 
	C715.196655,76.318512 715.560913,76.670555 715.966736,77.365417 
	C718.255432,81.133301 720.502625,84.558372 722.773499,87.983688 
	C722.797119,87.983940 722.749268,88.001694 722.792114,88.361237 
	C725.205688,93.154388 727.576477,97.587990 729.938538,102.350586 
	C730.536072,103.812752 731.142334,104.945938 731.779663,106.480354 
	C732.401917,108.504166 732.993042,110.126747 733.416931,111.290337 
	C748.141296,103.087563 762.180115,94.527603 776.880737,87.316925 
	C788.132568,81.797897 800.206421,77.946701 811.944458,73.431198 
	C816.247253,71.775955 819.187378,72.489449 820.786316,77.629860 
	C824.273743,88.841591 828.298645,99.886169 832.103943,110.999039 
	C832.093689,111.576218 832.083496,112.153404 832.266907,113.389908 
	C833.648193,120.700081 834.835815,127.350945 835.911743,134.369965 
	C836.027771,136.469650 836.255493,138.201172 836.397095,140.400330 
	C836.609314,145.910172 836.907654,150.952393 837.126343,156.359344 
	C837.107910,158.200455 837.169067,159.676849 837.156372,161.580353 
	C836.909668,170.009598 836.736877,178.011749 836.557861,186.409256 
	C837.033142,186.855453 837.514587,186.906281 838.429260,186.994522 
	C850.561707,187.317535 862.280640,187.281982 873.953613,187.996857 
	C882.335144,188.510162 890.655212,190.026123 899.281982,191.265747 
	C899.989197,191.438614 900.417114,191.440552 901.174377,191.634537 
	C908.960083,193.361023 916.416565,194.895477 924.083923,196.631317 
	C924.863159,196.891464 925.431519,196.950211 926.257812,197.211182 
	C927.771484,197.696350 929.027161,197.979309 930.515320,198.525818 
	C931.823486,199.215668 932.899170,199.641998 934.110596,200.332260 
	C934.643616,201.028885 935.040833,201.461578 935.438110,201.894272 
	C935.193359,202.289047 934.948547,202.683823 934.507446,203.532867 
	C933.771790,205.403320 933.232422,206.819489 932.417480,208.464844 
	C931.638062,209.756668 931.134216,210.819275 930.392822,212.112549 
	C924.215881,221.828857 918.276428,231.314499 912.336975,240.800171 
	C911.648071,241.557175 910.959167,242.314178 909.963623,243.552460 
	C908.053162,246.237549 906.449219,248.441376 904.550049,250.740875 
	C903.811523,251.497421 903.368103,252.158310 902.639404,252.943817 
	C901.513123,254.214249 900.672180,255.360062 899.524292,256.648102 
	C898.428406,257.840942 897.639404,258.891541 896.548950,260.083008 
	C893.438171,263.304840 890.628967,266.385834 887.521118,269.620331 
	C886.680176,270.467072 886.137878,271.160278 885.306885,271.998169 
	C874.989075,281.086121 864.959839,290.029419 854.659119,298.998810 
	C853.862183,299.507202 853.336792,299.989502 852.489563,300.589020 
	C851.283752,301.418121 850.399841,302.130005 849.236877,303.001343 
	C845.276367,305.700165 841.657104,308.335693 837.903259,310.763062 
	C815.305481,325.375427 791.322876,336.886627 764.999878,343.112946 
	C761.637512,343.041931 758.275146,342.970947 754.155029,342.770264 
	C751.696472,340.908905 749.995728,339.177216 748.264526,337.459229 
	C748.234131,337.472900 748.207947,337.414154 748.538574,337.316010 
	C750.630371,333.266418 752.391602,329.315002 754.441711,325.198059 
	C755.852478,323.432343 756.974304,321.832153 758.380615,320.043884 
	C760.498047,317.591827 762.330933,315.327759 764.413147,313.006226 
	C764.782532,312.650360 764.902588,312.351898 765.313599,311.885376 
	C768.405457,308.145691 771.206299,304.574066 774.290588,300.876404 
	C774.864563,300.220306 775.155151,299.690247 775.728394,298.992249 
	C782.807556,286.922455 789.604065,275.020660 796.653687,262.903015 
	C797.662659,260.813324 798.418457,258.939453 799.430908,256.820251 
	C801.457458,251.716599 803.227417,246.858322 805.198059,241.742340 
	C805.598206,240.656387 805.797729,239.828140 806.209961,238.814270 
	C806.528809,238.087219 806.635010,237.545776 806.927246,236.700226 
	C807.419312,235.267853 807.725342,234.139603 808.333862,232.776581 
	C810.376953,225.362366 812.117554,218.182953 814.023315,210.731689 
	C814.357727,209.848557 814.526978,209.237289 814.815369,208.250397 
	C815.056519,206.576218 815.178589,205.277664 815.491211,203.691895 
	C815.721619,202.724213 815.761353,202.043747 815.962402,201.063812 
	C816.151611,199.864105 816.179504,198.963882 816.429199,197.821045 
	C816.713989,196.717377 816.776855,195.856308 816.920166,194.579193 
	C817.863037,180.447037 818.725586,166.730927 819.659790,152.648926 
	C819.548279,150.837326 819.364990,149.391617 819.298950,147.501541 
	C818.343811,138.701111 817.271545,130.345047 816.252319,121.611626 
	C815.751526,118.538574 815.197693,115.842880 814.627991,112.737625 
	C812.342102,105.015823 810.072021,97.703575 807.675415,89.983643 
	C805.634399,90.849266 804.316589,91.408165 802.676270,91.930695 
	C801.172546,92.365105 799.991211,92.835884 798.440796,93.354706 
	C795.031311,94.797226 791.990906,96.191711 788.656250,97.630226 
	C787.869629,97.985718 787.377197,98.297180 786.518433,98.647385 
	C781.647400,101.067986 777.142578,103.449852 772.311279,105.880035 
	C769.957092,107.179329 767.929321,108.430298 765.548828,109.740776 
	C761.464355,112.210403 757.732605,114.620529 753.667786,117.061646 
	C752.278442,117.894371 751.222229,118.696106 749.885620,119.500748 
	C749.070679,120.004181 748.536255,120.504715 747.685547,121.027908 
	C746.207092,121.910034 745.044922,122.769493 743.552734,123.719215 
	C741.482727,125.140732 739.742737,126.471992 737.702515,127.840225 
	C737.331909,128.245834 737.261414,128.614471 737.121094,129.388123 
	C737.876709,134.522476 738.702332,139.251801 739.435425,144.283783 
	C739.516418,145.389496 739.689941,146.192551 739.795898,147.395874 
	C740.216003,152.334351 740.703613,156.872559 741.126221,161.583282 
	C741.039856,162.008530 741.090027,162.246124 741.144043,162.819550 
	C741.195007,164.109238 741.313660,165.047943 741.348267,166.305756 
	C741.478699,167.428772 741.693298,168.232697 741.853210,169.471680 
	C741.783081,172.240860 741.767578,174.574966 741.530518,177.097916 
	C741.305542,178.246262 741.302185,179.205780 741.198364,180.544189 
	C741.108337,183.947617 741.118774,186.972153 741.007568,190.383926 
	C740.684570,193.183777 740.483154,195.596375 740.187500,198.374207 
	C740.112000,199.491806 740.130737,200.244141 739.950073,201.295273 
	C739.802124,202.061310 739.853516,202.528580 739.745056,203.393600 
	C739.499512,205.496765 739.413818,207.202164 739.138916,209.251465 
	C738.373657,213.966812 737.603821,218.324814 737.298889,222.715103 
	C737.132446,225.112839 737.753113,227.565231 738.167664,230.293106 
	C740.901611,233.320068 743.486694,236.046906 746.105347,239.018738 
	C746.471436,239.609589 746.803772,239.955444 747.291443,240.624725 
	C750.691833,246.435287 753.937012,251.922409 757.152466,257.746185 
	C757.578674,259.099518 758.034485,260.116150 758.514648,261.571411 
	C758.941284,264.011993 759.343750,266.013947 759.605469,268.440308 
	C759.554077,271.237640 759.643555,273.610565 759.549988,276.290527 
	C759.366272,277.068634 759.365601,277.539764 759.197998,278.368652 
	C757.494141,287.015503 752.341003,293.095490 746.499756,298.900269 
	C745.991882,299.060883 745.854980,299.297852 745.548035,299.753601 
	C737.815002,303.522278 730.407410,307.161926 722.999878,310.801575 
	C722.527771,310.771118 722.055603,310.740723 720.873291,310.887329 
	C715.441833,311.435211 710.720581,311.806030 705.999390,312.176880 
M616.503601,131.968597 
	C627.742859,142.788010 638.174622,154.641281 650.404236,164.192627 
	C670.426819,179.830276 691.616516,193.973694 712.325928,208.730637 
	C713.040771,209.239990 713.883606,209.569626 714.787415,210.046722 
	C719.571716,174.844452 718.425293,120.602074 701.857239,87.235435 
	C686.386536,56.078514 668.205627,26.926487 640.759216,4.454275 
	C626.277893,15.577452 613.240051,27.590803 603.958435,43.106915 
	C594.375793,59.126163 590.503052,76.074913 595.714661,94.609802 
	C599.629333,108.532372 607.084961,120.355957 616.503601,131.968597 
M848.111450,284.630341 
	C875.479675,263.495026 899.358948,239.356155 915.233704,207.365021 
	C889.464294,197.361237 863.275146,192.164429 836.535645,187.979248 
	C833.976990,213.545227 828.693481,237.956345 819.031128,261.283905 
	C809.347290,284.663147 795.561462,305.270477 776.835632,322.604279 
	C801.651428,312.151672 825.912720,301.077576 848.111450,284.630341 
z"/>
<path fill="#AE812D" opacity="1.000000" stroke="none" 
	d="
M371.998657,244.000381 
	C370.916962,242.320526 369.835266,240.640671 368.369843,238.480392 
	C362.450806,229.299362 356.915527,220.598755 351.336670,211.541962 
	C350.630493,210.200928 349.967926,209.216080 349.318359,207.915894 
	C348.546906,206.067139 347.762390,204.533737 346.977905,203.000336 
	C346.948364,202.549347 346.918854,202.098373 347.147552,201.255219 
	C347.614716,200.604721 347.823608,200.346390 348.374817,200.042023 
	C349.701630,199.428101 350.686127,198.860214 352.016541,198.309631 
	C356.625946,197.081787 360.889435,195.836639 365.152893,194.591492 
	C365.588715,194.577545 366.024506,194.563614 367.150085,194.440689 
	C385.610504,191.789444 403.381165,189.247192 421.151855,186.704926 
	C421.884979,186.606384 422.618134,186.507858 424.137085,186.273666 
	C431.282654,186.411514 437.642365,186.684998 444.384216,187.073959 
	C444.989624,186.790787 445.212891,186.392166 445.463257,185.524979 
	C445.250610,179.373016 445.010925,173.689636 444.854462,167.549072 
	C444.890259,163.059525 444.842834,159.027145 444.871033,154.533356 
	C445.136963,149.360596 445.327240,144.649246 445.670929,139.597504 
	C445.874359,137.504532 445.924408,135.751938 446.130219,133.625076 
	C447.378632,126.561386 448.471283,119.871971 449.563904,113.182549 
	C449.717010,112.644989 449.870087,112.107430 450.146790,110.949013 
	C454.385651,97.657501 458.500854,84.986847 462.703003,72.048607 
	C466.989746,72.965126 470.137115,73.268295 473.011261,74.318909 
	C483.391327,78.113281 493.679504,82.159142 504.189148,86.378075 
	C505.561951,87.155556 506.747986,87.665001 508.165771,88.433365 
	C516.417419,92.866135 524.437256,97.039978 532.651733,101.497116 
	C533.863953,102.275009 534.881714,102.769615 536.094116,103.530426 
	C537.354126,104.526329 538.419495,105.256020 539.398254,106.321884 
	C539.389160,107.110687 539.466675,107.563301 539.362671,108.316437 
	C539.174500,109.076866 539.167725,109.536758 539.002808,110.309677 
	C538.879822,111.081238 538.914978,111.539787 538.732910,112.321304 
	C537.918762,115.442871 537.321716,118.241470 536.685913,121.221809 
	C532.295959,118.537956 528.227417,116.050568 523.971497,113.323792 
	C522.875244,112.672981 521.966248,112.261551 520.877930,111.551331 
	C507.799255,105.187691 494.899963,99.122849 481.701294,92.846863 
	C479.997192,92.239113 478.592499,91.842514 476.901367,91.181084 
	C475.596252,91.547577 473.939056,91.972900 473.658539,92.842369 
	C471.090607,100.802238 468.683777,108.817741 466.461151,116.880737 
	C466.180817,117.897598 467.235474,119.282448 467.642578,120.563942 
	C467.613556,120.631073 467.482178,120.695381 467.064758,120.601990 
	C465.583649,125.319054 464.519928,130.129517 463.319946,135.333008 
	C462.931854,144.479279 462.680023,153.232483 462.301086,162.318481 
	C462.273529,163.106415 462.373077,163.561569 462.363342,164.420517 
	C463.224030,174.881332 464.194000,184.938354 465.095062,195.316925 
	C465.285278,196.445770 465.544403,197.253067 465.742859,198.396622 
	C465.854187,199.613022 466.026123,200.493195 466.138062,201.637878 
	C466.200989,202.234756 466.323944,202.567139 466.406860,203.316345 
	C466.914673,205.821518 467.462494,207.909882 467.935669,210.322784 
	C468.123169,211.474960 468.385254,212.302597 468.629089,213.535339 
	C470.398224,220.296890 472.185608,226.653320 473.970154,233.366333 
	C474.397552,234.816666 474.827728,235.910461 475.232849,237.285522 
	C475.472351,238.044373 475.736938,238.521942 475.973999,239.325073 
	C476.298157,240.433762 476.649902,241.216888 476.983002,242.374207 
	C477.698059,244.709320 478.256592,246.761536 479.216888,248.604370 
	C480.096832,250.292999 481.410645,251.755569 482.593750,253.332642 
	C482.654236,253.347565 482.684448,253.468414 482.321564,253.707642 
	C482.549530,255.665970 483.140381,257.385071 483.749512,259.456055 
	C484.712921,261.649017 485.657990,263.490082 486.617065,265.331421 
	C486.631042,265.331726 486.633057,265.360291 486.640137,265.715973 
	C492.837891,276.617004 498.988739,287.186249 505.277130,297.673004 
	C505.952972,298.800110 507.428955,299.447388 508.594269,300.332367 
	C508.654755,300.347473 508.685516,300.468323 508.382202,300.741943 
	C513.355042,307.423981 518.631226,313.832428 523.992249,320.526062 
	C525.068054,321.977234 526.059082,323.143219 527.168457,324.665771 
	C528.585022,327.310120 530.045654,329.522522 531.148865,331.900726 
	C533.740662,337.487946 533.134644,339.399170 528.000122,343.021545 
	C524.297913,342.985382 520.595703,342.949188 516.227051,342.765991 
	C504.721802,338.976929 493.579437,336.035828 483.123993,331.508301 
	C471.132874,326.315826 459.750977,319.716400 447.951294,313.449463 
	C446.872498,312.681580 445.946808,312.192474 444.846863,311.427124 
	C440.614380,308.379486 436.556122,305.608093 432.287964,302.566284 
	C430.765076,301.432220 429.452057,300.568573 427.974091,299.424316 
	C425.887604,297.722687 423.966125,296.301758 421.915161,294.577972 
	C419.856537,292.851715 417.927429,291.428284 415.854431,289.702576 
	C412.805267,286.938568 409.900024,284.476807 406.922974,281.760681 
	C406.551239,281.343872 406.251221,281.181396 405.831970,280.704590 
	C402.609741,277.543945 399.506744,274.697662 396.287170,271.536194 
	C395.505981,270.634460 394.841370,270.047882 394.060364,269.162598 
	C390.990173,265.845093 388.036438,262.826263 385.033630,259.485107 
	C384.044861,258.277771 383.105164,257.392731 382.082642,256.188629 
	C378.666107,251.913132 375.332367,247.956757 371.998657,244.000381 
M380.578125,230.887726 
	C412.282837,274.750000 455.213043,303.378998 505.350983,322.509155 
	C465.890106,286.364502 451.181244,239.148407 445.307404,187.946884 
	C418.481873,192.298203 392.372498,197.342361 366.389160,207.567398 
	C371.242523,215.588104 375.695740,222.947586 380.578125,230.887726 
z"/>
</svg>